{
 "cells": [
  {
   "cell_type": "markdown",
   "id": "da061065",
   "metadata": {},
   "source": [
    "# S2 – More Python & FFMpeg"
   ]
  },
  {
   "cell_type": "markdown",
   "id": "0392f781",
   "metadata": {},
   "source": [
    "* Student full name: Ariadna Cortés Puig\n",
    "* Student email: ariadna.cortes01@estudiant.upf.edu"
   ]
  },
  {
   "cell_type": "code",
   "execution_count": 26,
   "id": "dc944ccd",
   "metadata": {},
   "outputs": [],
   "source": [
    "import ffmpy\n",
    "import ffmpeg\n",
    "import os"
   ]
  },
  {
   "cell_type": "code",
   "execution_count": 42,
   "id": "5d863e34",
   "metadata": {},
   "outputs": [],
   "source": [
    "##Exercici 1\n",
    "def macroblocks(name,output):\n",
    "    ff = ffmpy.FFmpeg(\n",
    "        inputs={''+str(name)+'': None},\n",
    "        outputs={''+str(output)+'': '-flags2 +export_mvs -vf codecview=mv=pf+bf+bb '})\n",
    "    ff.cmd\n",
    "    ff.run()\n",
    "        \n",
    "        \n",
    "##Exercici 2\n",
    "        #Cut BBB into 1 minute only video\n",
    "def cut(name,output,dur):\n",
    "    ff = ffmpy.FFmpeg(\n",
    "        inputs={''+str(name)+'': None},\n",
    "        outputs={''+str(output)+'': '-ss 00:00:00 -to 00:00:'+str(dur)+''})\n",
    "    ff.cmd\n",
    "    ff.run()\n",
    "        \n",
    "        #Export BBB(1min) audio as MP3 stereo track.\n",
    "def mp3stereo(name,output):\n",
    "    ff = ffmpy.FFmpeg(\n",
    "        inputs={''+str(name)+'': None},\n",
    "        outputs={''+str(output)+'': ' -acodec mp3 -vn '})\n",
    "    ff.cmd\n",
    "    ff.run()\n",
    "        \n",
    "        #Export BBB(1min) audio in AAC w/ lower bitrate\n",
    "def aacAudio(name,output):\n",
    "    ff = ffmpy.FFmpeg(\n",
    "        inputs={''+str(name)+'': None},\n",
    "        outputs={''+str(output)+'': '-acodec aac -b:a 384k -vn '})\n",
    "    ff.cmd\n",
    "    ff.run()\n",
    "\n",
    "        #Now package everything in a .mp4 with FFMPEG!!   \n",
    "def packageAll(name,mp3,aac,output):\n",
    "    ff = ffmpy.FFmpeg(\n",
    "        inputs={''+ str(name) +'': None,\n",
    "                ''+ str(mp3)  +'': None,\n",
    "                ''+ str(aac)  +'': None },\n",
    "        outputs={''+str(output)+'': ' -map 0 -map 1 -map 2 -codec copy'})\n",
    "    ff.cmd\n",
    "    ff.run()\n",
    "    \n",
    "        \n",
    "##Exercici 3  \n",
    "def broadcasting(name): \n",
    "    cmd = \"ffprobe -v error -select_streams a:0 \\\n",
    "           -show_entries stream=codec_name -of  \\\n",
    "            default=noprint_wrappers=1:nokey=1 input.mp4 >> codecs.txt\"\n",
    "    os.system(cmd) #find the codec for the video\n",
    "        \n",
    "    f = open('codecs.txt','r+')\n",
    "    codecs = f.read()\n",
    "    print (\"Code Video: \"+(codecs)+\"\")\n",
    "        \n",
    "        # Check which codec it is and therefore \n",
    "        #  which standard broadcasting is correct\n",
    "    if codecs == \"aac\\n\":\n",
    "        print(\"Broadcasting standard ISDB\")\n",
    "    elif  codecs == \"ac3\\n\":\n",
    "        print(\"Broadcasting standard ATSC\")\n",
    "    elif  codecs == \"avs\\n\":\n",
    "        print(\"Broadcasting standard DTMB\")\n",
    "    else: print (\"ERROR: it doesn’t fit any broadcasting\")\n",
    "    \n",
    "    f.truncate(0)\n",
    "\n",
    "        \n",
    "##Exercici 4\n",
    "def subtitles(name,output,sub):\n",
    "    ff = ffmpy.FFmpeg(\n",
    "        inputs={''+ str(name) +'': None},\n",
    "        outputs={''+str(output)+'': '-vf subtitles='+str(sub)+''})\n",
    "    ff.cmd\n",
    "    ff.run()        "
   ]
  },
  {
   "cell_type": "markdown",
   "id": "c05c6b4f",
   "metadata": {},
   "source": [
    "**1.-) Reuse your BBB shorted video from\n",
    "previous exercises and create a python script\n",
    "that, with the help from FFMpeg, will output a\n",
    "video that will show the macroblocks and the\n",
    "motion vectors**"
   ]
  },
  {
   "cell_type": "code",
   "execution_count": 29,
   "id": "8d10a1e7",
   "metadata": {},
   "outputs": [
    {
     "name": "stderr",
     "output_type": "stream",
     "text": [
      "ffmpeg version N-104465-g08a501946f-tessus  https://evermeet.cx/ffmpeg/  Copyright (c) 2000-2021 the FFmpeg developers\n",
      "  built with Apple clang version 11.0.0 (clang-1100.0.33.17)\n",
      "  configuration: --cc=/usr/bin/clang --prefix=/opt/ffmpeg --extra-version=tessus --enable-avisynth --enable-fontconfig --enable-gpl --enable-libaom --enable-libass --enable-libbluray --enable-libdav1d --enable-libfreetype --enable-libgsm --enable-libmodplug --enable-libmp3lame --enable-libmysofa --enable-libopencore-amrnb --enable-libopencore-amrwb --enable-libopenh264 --enable-libopenjpeg --enable-libopus --enable-librubberband --enable-libshine --enable-libsnappy --enable-libsoxr --enable-libspeex --enable-libtheora --enable-libtwolame --enable-libvidstab --enable-libvmaf --enable-libvo-amrwbenc --enable-libvorbis --enable-libvpx --enable-libwebp --enable-libx264 --enable-libx265 --enable-libxavs --enable-libxvid --enable-libzimg --enable-libzmq --enable-libzvbi --enable-version3 --pkg-config-flags=--static --disable-ffplay\n",
      "  libavutil      57.  7.100 / 57.  7.100\n",
      "  libavcodec     59. 12.100 / 59. 12.100\n",
      "  libavformat    59.  8.100 / 59.  8.100\n",
      "  libavdevice    59.  0.101 / 59.  0.101\n",
      "  libavfilter     8. 16.101 /  8. 16.101\n",
      "  libswscale      6.  1.100 /  6.  1.100\n",
      "  libswresample   4.  0.100 /  4.  0.100\n",
      "  libpostproc    56.  0.100 / 56.  0.100\n",
      "Input #0, mov,mp4,m4a,3gp,3g2,mj2, from 'input.mp4':\n",
      "  Metadata:\n",
      "    major_brand     : isom\n",
      "    minor_version   : 512\n",
      "    compatible_brands: isomiso2avc1mp41\n",
      "    encoder         : Lavf59.8.100\n",
      "  Duration: 00:00:30.00, start: 0.000000, bitrate: 1672 kb/s\n",
      "  Stream #0:0[0x1](und): Video: h264 (High) (avc1 / 0x31637661), yuv420p(tv, bt709, progressive), 1280x720 [SAR 1:1 DAR 16:9], 1324 kb/s, 24 fps, 24 tbr, 12288 tbn (default)\n",
      "    Metadata:\n",
      "      handler_name    : VideoHandler\n",
      "      vendor_id       : [0][0][0][0]\n",
      "  Stream #0:1[0x2](und): Audio: aac (LC) (mp4a / 0x6134706D), 48000 Hz, 5.1, fltp, 342 kb/s (default)\n",
      "    Metadata:\n",
      "      handler_name    : SoundHandler\n",
      "      vendor_id       : [0][0][0][0]\n",
      "Stream mapping:\n",
      "  Stream #0:0 -> #0:0 (h264 (native) -> h264 (libx264))\n",
      "  Stream #0:1 -> #0:1 (aac (native) -> aac (native))\n",
      "Press [q] to stop, [?] for help\n",
      "[libx264 @ 0x7f7c5a705d00] using SAR=1/1\n",
      "[libx264 @ 0x7f7c5a705d00] using cpu capabilities: MMX2 SSE2Fast SSSE3 SSE4.2 AVX FMA3 BMI2 AVX2\n",
      "[libx264 @ 0x7f7c5a705d00] profile High, level 3.1, 4:2:0, 8-bit\n",
      "[libx264 @ 0x7f7c5a705d00] 264 - core 164 r3075 66a5bc1 - H.264/MPEG-4 AVC codec - Copyleft 2003-2021 - http://www.videolan.org/x264.html - options: cabac=1 ref=3 deblock=1:0:0 analyse=0x3:0x113 me=hex subme=7 psy=1 psy_rd=1.00:0.00 mixed_ref=1 me_range=16 chroma_me=1 trellis=1 8x8dct=1 cqm=0 deadzone=21,11 fast_pskip=1 chroma_qp_offset=-2 threads=6 lookahead_threads=1 sliced_threads=0 nr=0 decimate=1 interlaced=0 bluray_compat=0 constrained_intra=0 bframes=3 b_pyramid=2 b_adapt=1 b_bias=0 direct=1 weightb=1 open_gop=0 weightp=2 keyint=250 keyint_min=24 scenecut=40 intra_refresh=0 rc_lookahead=40 rc=crf mbtree=1 crf=23.0 qcomp=0.60 qpmin=0 qpmax=69 qpstep=4 ip_ratio=1.40 aq=1:1.00\n",
      "Output #0, mp4, to 'macroblock.mp4':\n",
      "  Metadata:\n",
      "    major_brand     : isom\n",
      "    minor_version   : 512\n",
      "    compatible_brands: isomiso2avc1mp41\n",
      "    encoder         : Lavf59.8.100\n",
      "  Stream #0:0(und): Video: h264 (avc1 / 0x31637661), yuv420p(tv, bt709, progressive), 1280x720 [SAR 1:1 DAR 16:9], q=2-31, 24 fps, 12288 tbn (default)\n",
      "    Metadata:\n",
      "      handler_name    : VideoHandler\n",
      "      vendor_id       : [0][0][0][0]\n",
      "      encoder         : Lavc59.12.100 libx264\n",
      "    Side data:\n",
      "      cpb: bitrate max/min/avg: 0/0/0 buffer size: 0 vbv_delay: N/A\n",
      "  Stream #0:1(und): Audio: aac (LC) (mp4a / 0x6134706D), 48000 Hz, 5.1, fltp, 341 kb/s (default)\n",
      "    Metadata:\n",
      "      handler_name    : SoundHandler\n",
      "      vendor_id       : [0][0][0][0]\n",
      "      encoder         : Lavc59.12.100 aac\n",
      "frame=  720 fps= 33 q=-1.0 Lsize=    5808kB time=00:00:30.01 bitrate=1585.1kbits/s speed=1.36x    \n",
      "video:4532kB audio:1254kB subtitle:0kB other streams:0kB global headers:0kB muxing overhead: 0.372603%\n",
      "[libx264 @ 0x7f7c5a705d00] frame I:5     Avg QP:14.93  size:125643\n",
      "[libx264 @ 0x7f7c5a705d00] frame P:219   Avg QP:20.13  size: 14305\n",
      "[libx264 @ 0x7f7c5a705d00] frame B:496   Avg QP:24.37  size:  1772\n",
      "[libx264 @ 0x7f7c5a705d00] consecutive B-frames:  3.5% 11.1%  8.8% 76.7%\n",
      "[libx264 @ 0x7f7c5a705d00] mb I  I16..4: 33.0% 20.8% 46.2%\n",
      "[libx264 @ 0x7f7c5a705d00] mb P  I16..4:  3.0%  7.3%  0.6%  P16..4: 28.9% 11.6%  7.8%  0.0%  0.0%    skip:40.9%\n",
      "[libx264 @ 0x7f7c5a705d00] mb B  I16..4:  1.0%  0.4%  0.0%  B16..8: 28.6%  1.3%  0.1%  direct: 1.0%  skip:67.5%  L0:45.1% L1:49.7% BI: 5.2%\n",
      "[libx264 @ 0x7f7c5a705d00] 8x8 transform intra:52.3% inter:56.0%\n",
      "[libx264 @ 0x7f7c5a705d00] coded y,uvDC,uvAC intra: 21.8% 34.0% 12.2% inter: 6.2% 8.7% 0.9%\n",
      "[libx264 @ 0x7f7c5a705d00] i16 v,h,dc,p: 58% 22%  9% 11%\n",
      "[libx264 @ 0x7f7c5a705d00] i8 v,h,dc,ddl,ddr,vr,hd,vl,hu: 26% 15% 46%  2%  2%  2%  2%  2%  2%\n",
      "[libx264 @ 0x7f7c5a705d00] i4 v,h,dc,ddl,ddr,vr,hd,vl,hu: 20% 16% 15%  7%  9%  9%  8%  9%  8%\n",
      "[libx264 @ 0x7f7c5a705d00] i8c dc,h,v,p: 62% 19% 14%  5%\n",
      "[libx264 @ 0x7f7c5a705d00] Weighted P-Frames: Y:11.0% UV:7.3%\n",
      "[libx264 @ 0x7f7c5a705d00] ref P L0: 67.2% 15.4% 13.3%  3.9%  0.1%\n",
      "[libx264 @ 0x7f7c5a705d00] ref B L0: 88.3%  9.9%  1.9%\n",
      "[libx264 @ 0x7f7c5a705d00] ref B L1: 95.5%  4.5%\n",
      "[libx264 @ 0x7f7c5a705d00] kb/s:1237.40\n",
      "[aac @ 0x7f7c5a704ec0] Qavg: 1438.293\n"
     ]
    }
   ],
   "source": [
    "macroblocks(name = 'input.mp4',output= 'macroblock.mp4')"
   ]
  },
  {
   "cell_type": "markdown",
   "id": "2ac63f07",
   "metadata": {},
   "source": [
    "**2.-) You’re going to create a script in\n",
    "order to create a new BBB container:**\n",
    "\n",
    "**·Cut BBB into 1 minute only video.**\n",
    "\n",
    "**·Export BBB(1min) audio as MP3 stereo track.**\n",
    "\n",
    "**·Export BBB(1min) audio in AAC w/ lower bitrate**\n",
    "\n",
    "****Now package everything in a .mp4 with\n",
    "FFMPEG!!****"
   ]
  },
  {
   "cell_type": "code",
   "execution_count": 30,
   "id": "0cf9bc8f",
   "metadata": {
    "scrolled": false
   },
   "outputs": [
    {
     "name": "stderr",
     "output_type": "stream",
     "text": [
      "ffmpeg version N-104465-g08a501946f-tessus  https://evermeet.cx/ffmpeg/  Copyright (c) 2000-2021 the FFmpeg developers\n",
      "  built with Apple clang version 11.0.0 (clang-1100.0.33.17)\n",
      "  configuration: --cc=/usr/bin/clang --prefix=/opt/ffmpeg --extra-version=tessus --enable-avisynth --enable-fontconfig --enable-gpl --enable-libaom --enable-libass --enable-libbluray --enable-libdav1d --enable-libfreetype --enable-libgsm --enable-libmodplug --enable-libmp3lame --enable-libmysofa --enable-libopencore-amrnb --enable-libopencore-amrwb --enable-libopenh264 --enable-libopenjpeg --enable-libopus --enable-librubberband --enable-libshine --enable-libsnappy --enable-libsoxr --enable-libspeex --enable-libtheora --enable-libtwolame --enable-libvidstab --enable-libvmaf --enable-libvo-amrwbenc --enable-libvorbis --enable-libvpx --enable-libwebp --enable-libx264 --enable-libx265 --enable-libxavs --enable-libxvid --enable-libzimg --enable-libzmq --enable-libzvbi --enable-version3 --pkg-config-flags=--static --disable-ffplay\n",
      "  libavutil      57.  7.100 / 57.  7.100\n",
      "  libavcodec     59. 12.100 / 59. 12.100\n",
      "  libavformat    59.  8.100 / 59.  8.100\n",
      "  libavdevice    59.  0.101 / 59.  0.101\n",
      "  libavfilter     8. 16.101 /  8. 16.101\n",
      "  libswscale      6.  1.100 /  6.  1.100\n",
      "  libswresample   4.  0.100 /  4.  0.100\n",
      "  libpostproc    56.  0.100 / 56.  0.100\n",
      "Input #0, mov,mp4,m4a,3gp,3g2,mj2, from 'input.mp4':\n",
      "  Metadata:\n",
      "    major_brand     : isom\n",
      "    minor_version   : 512\n",
      "    compatible_brands: isomiso2avc1mp41\n",
      "    encoder         : Lavf59.8.100\n",
      "  Duration: 00:00:30.00, start: 0.000000, bitrate: 1672 kb/s\n",
      "  Stream #0:0[0x1](und): Video: h264 (High) (avc1 / 0x31637661), yuv420p(tv, bt709, progressive), 1280x720 [SAR 1:1 DAR 16:9], 1324 kb/s, 24 fps, 24 tbr, 12288 tbn (default)\n",
      "    Metadata:\n",
      "      handler_name    : VideoHandler\n",
      "      vendor_id       : [0][0][0][0]\n",
      "  Stream #0:1[0x2](und): Audio: aac (LC) (mp4a / 0x6134706D), 48000 Hz, 5.1, fltp, 342 kb/s (default)\n",
      "    Metadata:\n",
      "      handler_name    : SoundHandler\n",
      "      vendor_id       : [0][0][0][0]\n",
      "Stream mapping:\n",
      "  Stream #0:0 -> #0:0 (h264 (native) -> h264 (libx264))\n",
      "  Stream #0:1 -> #0:1 (aac (native) -> aac (native))\n",
      "Press [q] to stop, [?] for help\n",
      "[libx264 @ 0x7f7922f05780] using SAR=1/1\n",
      "[libx264 @ 0x7f7922f05780] using cpu capabilities: MMX2 SSE2Fast SSSE3 SSE4.2 AVX FMA3 BMI2 AVX2\n",
      "[libx264 @ 0x7f7922f05780] profile High, level 3.1, 4:2:0, 8-bit\n",
      "[libx264 @ 0x7f7922f05780] 264 - core 164 r3075 66a5bc1 - H.264/MPEG-4 AVC codec - Copyleft 2003-2021 - http://www.videolan.org/x264.html - options: cabac=1 ref=3 deblock=1:0:0 analyse=0x3:0x113 me=hex subme=7 psy=1 psy_rd=1.00:0.00 mixed_ref=1 me_range=16 chroma_me=1 trellis=1 8x8dct=1 cqm=0 deadzone=21,11 fast_pskip=1 chroma_qp_offset=-2 threads=6 lookahead_threads=1 sliced_threads=0 nr=0 decimate=1 interlaced=0 bluray_compat=0 constrained_intra=0 bframes=3 b_pyramid=2 b_adapt=1 b_bias=0 direct=1 weightb=1 open_gop=0 weightp=2 keyint=250 keyint_min=24 scenecut=40 intra_refresh=0 rc_lookahead=40 rc=crf mbtree=1 crf=23.0 qcomp=0.60 qpmin=0 qpmax=69 qpstep=4 ip_ratio=1.40 aq=1:1.00\n",
      "Output #0, mp4, to 'cutBBB.mp4':\n",
      "  Metadata:\n",
      "    major_brand     : isom\n",
      "    minor_version   : 512\n",
      "    compatible_brands: isomiso2avc1mp41\n",
      "    encoder         : Lavf59.8.100\n",
      "  Stream #0:0(und): Video: h264 (avc1 / 0x31637661), yuv420p(tv, bt709, progressive), 1280x720 [SAR 1:1 DAR 16:9], q=2-31, 24 fps, 12288 tbn (default)\n",
      "    Metadata:\n",
      "      handler_name    : VideoHandler\n",
      "      vendor_id       : [0][0][0][0]\n",
      "      encoder         : Lavc59.12.100 libx264\n",
      "    Side data:\n",
      "      cpb: bitrate max/min/avg: 0/0/0 buffer size: 0 vbv_delay: N/A\n",
      "  Stream #0:1(und): Audio: aac (LC) (mp4a / 0x6134706D), 48000 Hz, 5.1, fltp, 341 kb/s (default)\n",
      "    Metadata:\n",
      "      handler_name    : SoundHandler\n",
      "      vendor_id       : [0][0][0][0]\n",
      "      encoder         : Lavc59.12.100 aac\n",
      "frame=  720 fps= 28 q=-1.0 Lsize=    5808kB time=00:00:30.01 bitrate=1585.1kbits/s speed=1.18x    \n",
      "video:4532kB audio:1254kB subtitle:0kB other streams:0kB global headers:0kB muxing overhead: 0.372603%\n",
      "[libx264 @ 0x7f7922f05780] frame I:5     Avg QP:14.93  size:125643\n",
      "[libx264 @ 0x7f7922f05780] frame P:219   Avg QP:20.13  size: 14305\n",
      "[libx264 @ 0x7f7922f05780] frame B:496   Avg QP:24.37  size:  1772\n",
      "[libx264 @ 0x7f7922f05780] consecutive B-frames:  3.5% 11.1%  8.8% 76.7%\n",
      "[libx264 @ 0x7f7922f05780] mb I  I16..4: 33.0% 20.8% 46.2%\n",
      "[libx264 @ 0x7f7922f05780] mb P  I16..4:  3.0%  7.3%  0.6%  P16..4: 28.9% 11.6%  7.8%  0.0%  0.0%    skip:40.9%\n",
      "[libx264 @ 0x7f7922f05780] mb B  I16..4:  1.0%  0.4%  0.0%  B16..8: 28.6%  1.3%  0.1%  direct: 1.0%  skip:67.5%  L0:45.1% L1:49.7% BI: 5.2%\n",
      "[libx264 @ 0x7f7922f05780] 8x8 transform intra:52.3% inter:56.0%\n",
      "[libx264 @ 0x7f7922f05780] coded y,uvDC,uvAC intra: 21.8% 34.0% 12.2% inter: 6.2% 8.7% 0.9%\n",
      "[libx264 @ 0x7f7922f05780] i16 v,h,dc,p: 58% 22%  9% 11%\n",
      "[libx264 @ 0x7f7922f05780] i8 v,h,dc,ddl,ddr,vr,hd,vl,hu: 26% 15% 46%  2%  2%  2%  2%  2%  2%\n",
      "[libx264 @ 0x7f7922f05780] i4 v,h,dc,ddl,ddr,vr,hd,vl,hu: 20% 16% 15%  7%  9%  9%  8%  9%  8%\n",
      "[libx264 @ 0x7f7922f05780] i8c dc,h,v,p: 62% 19% 14%  5%\n",
      "[libx264 @ 0x7f7922f05780] Weighted P-Frames: Y:11.0% UV:7.3%\n",
      "[libx264 @ 0x7f7922f05780] ref P L0: 67.2% 15.4% 13.3%  3.9%  0.1%\n",
      "[libx264 @ 0x7f7922f05780] ref B L0: 88.3%  9.9%  1.9%\n",
      "[libx264 @ 0x7f7922f05780] ref B L1: 95.5%  4.5%\n",
      "[libx264 @ 0x7f7922f05780] kb/s:1237.40\n",
      "[aac @ 0x7f7922f05d80] Qavg: 1438.293\n",
      "ffmpeg version N-104465-g08a501946f-tessus  https://evermeet.cx/ffmpeg/  Copyright (c) 2000-2021 the FFmpeg developers\n",
      "  built with Apple clang version 11.0.0 (clang-1100.0.33.17)\n",
      "  configuration: --cc=/usr/bin/clang --prefix=/opt/ffmpeg --extra-version=tessus --enable-avisynth --enable-fontconfig --enable-gpl --enable-libaom --enable-libass --enable-libbluray --enable-libdav1d --enable-libfreetype --enable-libgsm --enable-libmodplug --enable-libmp3lame --enable-libmysofa --enable-libopencore-amrnb --enable-libopencore-amrwb --enable-libopenh264 --enable-libopenjpeg --enable-libopus --enable-librubberband --enable-libshine --enable-libsnappy --enable-libsoxr --enable-libspeex --enable-libtheora --enable-libtwolame --enable-libvidstab --enable-libvmaf --enable-libvo-amrwbenc --enable-libvorbis --enable-libvpx --enable-libwebp --enable-libx264 --enable-libx265 --enable-libxavs --enable-libxvid --enable-libzimg --enable-libzmq --enable-libzvbi --enable-version3 --pkg-config-flags=--static --disable-ffplay\n",
      "  libavutil      57.  7.100 / 57.  7.100\n",
      "  libavcodec     59. 12.100 / 59. 12.100\n",
      "  libavformat    59.  8.100 / 59.  8.100\n",
      "  libavdevice    59.  0.101 / 59.  0.101\n",
      "  libavfilter     8. 16.101 /  8. 16.101\n",
      "  libswscale      6.  1.100 /  6.  1.100\n",
      "  libswresample   4.  0.100 /  4.  0.100\n",
      "  libpostproc    56.  0.100 / 56.  0.100\n",
      "Input #0, mov,mp4,m4a,3gp,3g2,mj2, from 'cutBBB.mp4':\n",
      "  Metadata:\n",
      "    major_brand     : isom\n",
      "    minor_version   : 512\n",
      "    compatible_brands: isomiso2avc1mp41\n",
      "    encoder         : Lavf59.8.100\n",
      "  Duration: 00:00:30.02, start: 0.000000, bitrate: 1585 kb/s\n",
      "  Stream #0:0[0x1](und): Video: h264 (High) (avc1 / 0x31637661), yuv420p(tv, bt709, progressive), 1280x720 [SAR 1:1 DAR 16:9], 1237 kb/s, 24 fps, 24 tbr, 12288 tbn (default)\n",
      "    Metadata:\n",
      "      handler_name    : VideoHandler\n",
      "      vendor_id       : [0][0][0][0]\n",
      "  Stream #0:1[0x2](und): Audio: aac (LC) (mp4a / 0x6134706D), 48000 Hz, 5.1, fltp, 342 kb/s (default)\n",
      "    Metadata:\n",
      "      handler_name    : SoundHandler\n",
      "      vendor_id       : [0][0][0][0]\n",
      "Stream mapping:\n",
      "  Stream #0:1 -> #0:0 (aac (native) -> mp3 (libmp3lame))\n",
      "Press [q] to stop, [?] for help\n",
      "Output #0, mp3, to 'mp3BBB.mp3':\n",
      "  Metadata:\n",
      "    major_brand     : isom\n",
      "    minor_version   : 512\n",
      "    compatible_brands: isomiso2avc1mp41\n",
      "    TSSE            : Lavf59.8.100\n",
      "  Stream #0:0(und): Audio: mp3, 48000 Hz, stereo, fltp (default)\n",
      "    Metadata:\n",
      "      handler_name    : SoundHandler\n",
      "      vendor_id       : [0][0][0][0]\n",
      "      encoder         : Lavc59.12.100 libmp3lame\n",
      "size=     470kB time=00:00:30.02 bitrate= 128.2kbits/s speed=  11x    \n",
      "video:0kB audio:470kB subtitle:0kB other streams:0kB global headers:0kB muxing overhead: 0.070512%\n",
      "ffmpeg version N-104465-g08a501946f-tessus  https://evermeet.cx/ffmpeg/  Copyright (c) 2000-2021 the FFmpeg developers\n",
      "  built with Apple clang version 11.0.0 (clang-1100.0.33.17)\n",
      "  configuration: --cc=/usr/bin/clang --prefix=/opt/ffmpeg --extra-version=tessus --enable-avisynth --enable-fontconfig --enable-gpl --enable-libaom --enable-libass --enable-libbluray --enable-libdav1d --enable-libfreetype --enable-libgsm --enable-libmodplug --enable-libmp3lame --enable-libmysofa --enable-libopencore-amrnb --enable-libopencore-amrwb --enable-libopenh264 --enable-libopenjpeg --enable-libopus --enable-librubberband --enable-libshine --enable-libsnappy --enable-libsoxr --enable-libspeex --enable-libtheora --enable-libtwolame --enable-libvidstab --enable-libvmaf --enable-libvo-amrwbenc --enable-libvorbis --enable-libvpx --enable-libwebp --enable-libx264 --enable-libx265 --enable-libxavs --enable-libxvid --enable-libzimg --enable-libzmq --enable-libzvbi --enable-version3 --pkg-config-flags=--static --disable-ffplay\n",
      "  libavutil      57.  7.100 / 57.  7.100\n",
      "  libavcodec     59. 12.100 / 59. 12.100\n",
      "  libavformat    59.  8.100 / 59.  8.100\n",
      "  libavdevice    59.  0.101 / 59.  0.101\n",
      "  libavfilter     8. 16.101 /  8. 16.101\n",
      "  libswscale      6.  1.100 /  6.  1.100\n",
      "  libswresample   4.  0.100 /  4.  0.100\n",
      "  libpostproc    56.  0.100 / 56.  0.100\n",
      "Input #0, mov,mp4,m4a,3gp,3g2,mj2, from 'cutBBB.mp4':\n",
      "  Metadata:\n",
      "    major_brand     : isom\n",
      "    minor_version   : 512\n",
      "    compatible_brands: isomiso2avc1mp41\n",
      "    encoder         : Lavf59.8.100\n",
      "  Duration: 00:00:30.02, start: 0.000000, bitrate: 1585 kb/s\n",
      "  Stream #0:0[0x1](und): Video: h264 (High) (avc1 / 0x31637661), yuv420p(tv, bt709, progressive), 1280x720 [SAR 1:1 DAR 16:9], 1237 kb/s, 24 fps, 24 tbr, 12288 tbn (default)\n",
      "    Metadata:\n",
      "      handler_name    : VideoHandler\n",
      "      vendor_id       : [0][0][0][0]\n",
      "  Stream #0:1[0x2](und): Audio: aac (LC) (mp4a / 0x6134706D), 48000 Hz, 5.1, fltp, 342 kb/s (default)\n",
      "    Metadata:\n",
      "      handler_name    : SoundHandler\n",
      "      vendor_id       : [0][0][0][0]\n",
      "Stream mapping:\n",
      "  Stream #0:1 -> #0:0 (aac (native) -> aac (native))\n",
      "Press [q] to stop, [?] for help\n",
      "Output #0, mp4, to 'aacBBB.mp4':\n",
      "  Metadata:\n",
      "    major_brand     : isom\n",
      "    minor_version   : 512\n",
      "    compatible_brands: isomiso2avc1mp41\n",
      "    encoder         : Lavf59.8.100\n",
      "  Stream #0:0(und): Audio: aac (LC) (mp4a / 0x6134706D), 48000 Hz, 5.1, fltp, 384 kb/s (default)\n",
      "    Metadata:\n",
      "      handler_name    : SoundHandler\n",
      "      vendor_id       : [0][0][0][0]\n",
      "      encoder         : Lavc59.12.100 aac\n"
     ]
    },
    {
     "name": "stderr",
     "output_type": "stream",
     "text": [
      "size=    1410kB time=00:00:30.01 bitrate= 384.9kbits/s speed=16.1x    \n",
      "video:0kB audio:1404kB subtitle:0kB other streams:0kB global headers:0kB muxing overhead: 0.449707%\n",
      "[aac @ 0x7fe939910600] Qavg: 18494.584\n",
      "ffmpeg version N-104465-g08a501946f-tessus  https://evermeet.cx/ffmpeg/  Copyright (c) 2000-2021 the FFmpeg developers\n",
      "  built with Apple clang version 11.0.0 (clang-1100.0.33.17)\n",
      "  configuration: --cc=/usr/bin/clang --prefix=/opt/ffmpeg --extra-version=tessus --enable-avisynth --enable-fontconfig --enable-gpl --enable-libaom --enable-libass --enable-libbluray --enable-libdav1d --enable-libfreetype --enable-libgsm --enable-libmodplug --enable-libmp3lame --enable-libmysofa --enable-libopencore-amrnb --enable-libopencore-amrwb --enable-libopenh264 --enable-libopenjpeg --enable-libopus --enable-librubberband --enable-libshine --enable-libsnappy --enable-libsoxr --enable-libspeex --enable-libtheora --enable-libtwolame --enable-libvidstab --enable-libvmaf --enable-libvo-amrwbenc --enable-libvorbis --enable-libvpx --enable-libwebp --enable-libx264 --enable-libx265 --enable-libxavs --enable-libxvid --enable-libzimg --enable-libzmq --enable-libzvbi --enable-version3 --pkg-config-flags=--static --disable-ffplay\n",
      "  libavutil      57.  7.100 / 57.  7.100\n",
      "  libavcodec     59. 12.100 / 59. 12.100\n",
      "  libavformat    59.  8.100 / 59.  8.100\n",
      "  libavdevice    59.  0.101 / 59.  0.101\n",
      "  libavfilter     8. 16.101 /  8. 16.101\n",
      "  libswscale      6.  1.100 /  6.  1.100\n",
      "  libswresample   4.  0.100 /  4.  0.100\n",
      "  libpostproc    56.  0.100 / 56.  0.100\n",
      "Input #0, mov,mp4,m4a,3gp,3g2,mj2, from 'cutBBB.mp4':\n",
      "  Metadata:\n",
      "    major_brand     : isom\n",
      "    minor_version   : 512\n",
      "    compatible_brands: isomiso2avc1mp41\n",
      "    encoder         : Lavf59.8.100\n",
      "  Duration: 00:00:30.02, start: 0.000000, bitrate: 1585 kb/s\n",
      "  Stream #0:0[0x1](und): Video: h264 (High) (avc1 / 0x31637661), yuv420p(tv, bt709, progressive), 1280x720 [SAR 1:1 DAR 16:9], 1237 kb/s, 24 fps, 24 tbr, 12288 tbn (default)\n",
      "    Metadata:\n",
      "      handler_name    : VideoHandler\n",
      "      vendor_id       : [0][0][0][0]\n",
      "  Stream #0:1[0x2](und): Audio: aac (LC) (mp4a / 0x6134706D), 48000 Hz, 5.1, fltp, 342 kb/s (default)\n",
      "    Metadata:\n",
      "      handler_name    : SoundHandler\n",
      "      vendor_id       : [0][0][0][0]\n",
      "Input #1, mp3, from 'mp3BBB.mp3':\n",
      "  Metadata:\n",
      "    major_brand     : isom\n",
      "    minor_version   : 512\n",
      "    compatible_brands: isomiso2avc1mp41\n",
      "    encoder         : Lavf59.8.100\n",
      "  Duration: 00:00:30.05, start: 0.023021, bitrate: 128 kb/s\n",
      "  Stream #1:0: Audio: mp3, 48000 Hz, stereo, fltp, 128 kb/s\n",
      "    Metadata:\n",
      "      encoder         : Lavc59.12\n",
      "Input #2, mov,mp4,m4a,3gp,3g2,mj2, from 'aacBBB.mp4':\n",
      "  Metadata:\n",
      "    major_brand     : isom\n",
      "    minor_version   : 512\n",
      "    compatible_brands: isomiso2mp41\n",
      "    encoder         : Lavf59.8.100\n",
      "  Duration: 00:00:30.02, start: 0.000000, bitrate: 384 kb/s\n",
      "  Stream #2:0[0x1](und): Audio: aac (LC) (mp4a / 0x6134706D), 48000 Hz, 5.1, fltp, 383 kb/s (default)\n",
      "    Metadata:\n",
      "      handler_name    : SoundHandler\n",
      "      vendor_id       : [0][0][0][0]\n",
      "Output #0, mp4, to 'Ex2final.mp4':\n",
      "  Metadata:\n",
      "    major_brand     : isom\n",
      "    minor_version   : 512\n",
      "    compatible_brands: isomiso2avc1mp41\n",
      "    encoder         : Lavf59.8.100\n",
      "  Stream #0:0(und): Video: h264 (High) (avc1 / 0x31637661), yuv420p(tv, bt709, progressive), 1280x720 [SAR 1:1 DAR 16:9], q=2-31, 1237 kb/s, 24 fps, 24 tbr, 12288 tbn (default)\n",
      "    Metadata:\n",
      "      handler_name    : VideoHandler\n",
      "      vendor_id       : [0][0][0][0]\n",
      "  Stream #0:1(und): Audio: aac (LC) (mp4a / 0x6134706D), 48000 Hz, 5.1, fltp, 342 kb/s (default)\n",
      "    Metadata:\n",
      "      handler_name    : SoundHandler\n",
      "      vendor_id       : [0][0][0][0]\n",
      "  Stream #0:2: Audio: mp3 (mp4a / 0x6134706D), 48000 Hz, stereo, fltp, 128 kb/s\n",
      "    Metadata:\n",
      "      encoder         : Lavc59.12\n",
      "  Stream #0:3(und): Audio: aac (LC) (mp4a / 0x6134706D), 48000 Hz, 5.1, fltp, 383 kb/s (default)\n",
      "    Metadata:\n",
      "      handler_name    : SoundHandler\n",
      "      vendor_id       : [0][0][0][0]\n",
      "Stream mapping:\n",
      "  Stream #0:0 -> #0:0 (copy)\n",
      "  Stream #0:1 -> #0:1 (copy)\n",
      "  Stream #1:0 -> #0:2 (copy)\n",
      "  Stream #2:0 -> #0:3 (copy)\n",
      "Press [q] to stop, [?] for help\n",
      "frame=  720 fps=0.0 q=-1.0 Lsize=    7700kB time=00:00:30.02 bitrate=2101.0kbits/s speed= 539x    \n",
      "video:4532kB audio:3128kB subtitle:0kB other streams:0kB global headers:0kB muxing overhead: 0.526916%\n"
     ]
    }
   ],
   "source": [
    "cut(name = 'input.mp4',output= 'cutBBB.mp4',dur=59)\n",
    "mp3stereo(name = 'cutBBB.mp4',output= 'mp3BBB.mp3')\n",
    "aacAudio(name = 'cutBBB.mp4',output= 'aacBBB.mp4')\n",
    "packageAll(name = 'cutBBB.mp4',mp3='mp3BBB.mp3',aac='aacBBB.mp4',output= 'Ex2final.mp4')"
   ]
  },
  {
   "cell_type": "markdown",
   "id": "365f1547",
   "metadata": {},
   "source": [
    "**3) Create a script which reads the tracks from\n",
    "an MP4 container, and it’s able to say:\n",
    "·Which broadcasting standard would fit\n",
    "·ERROR in case it doesn’t fit any**"
   ]
  },
  {
   "cell_type": "code",
   "execution_count": 31,
   "id": "e0a4ec31",
   "metadata": {},
   "outputs": [
    {
     "name": "stdout",
     "output_type": "stream",
     "text": [
      "Code Video: aac\n",
      "\n",
      "Broadcasting standard ISDB\n"
     ]
    }
   ],
   "source": [
    "broadcasting(name = 'input.mp4')"
   ]
  },
  {
   "cell_type": "markdown",
   "id": "b41e5870",
   "metadata": {},
   "source": [
    "**4) Create a script which will download\n",
    "subtitles, integrate them and output a video\n",
    "with printed subtitles (this means, it will form\n",
    "part of the video track)**\n",
    "\n",
    "He tret els subtítols de https://github.com/moust/MediaPlayer/blob/master/demo/subtitles.srt"
   ]
  },
  {
   "cell_type": "code",
   "execution_count": 44,
   "id": "b3c080b5",
   "metadata": {},
   "outputs": [
    {
     "name": "stderr",
     "output_type": "stream",
     "text": [
      "ffmpeg version N-104465-g08a501946f-tessus  https://evermeet.cx/ffmpeg/  Copyright (c) 2000-2021 the FFmpeg developers\n",
      "  built with Apple clang version 11.0.0 (clang-1100.0.33.17)\n",
      "  configuration: --cc=/usr/bin/clang --prefix=/opt/ffmpeg --extra-version=tessus --enable-avisynth --enable-fontconfig --enable-gpl --enable-libaom --enable-libass --enable-libbluray --enable-libdav1d --enable-libfreetype --enable-libgsm --enable-libmodplug --enable-libmp3lame --enable-libmysofa --enable-libopencore-amrnb --enable-libopencore-amrwb --enable-libopenh264 --enable-libopenjpeg --enable-libopus --enable-librubberband --enable-libshine --enable-libsnappy --enable-libsoxr --enable-libspeex --enable-libtheora --enable-libtwolame --enable-libvidstab --enable-libvmaf --enable-libvo-amrwbenc --enable-libvorbis --enable-libvpx --enable-libwebp --enable-libx264 --enable-libx265 --enable-libxavs --enable-libxvid --enable-libzimg --enable-libzmq --enable-libzvbi --enable-version3 --pkg-config-flags=--static --disable-ffplay\n",
      "  libavutil      57.  7.100 / 57.  7.100\n",
      "  libavcodec     59. 12.100 / 59. 12.100\n",
      "  libavformat    59.  8.100 / 59.  8.100\n",
      "  libavdevice    59.  0.101 / 59.  0.101\n",
      "  libavfilter     8. 16.101 /  8. 16.101\n",
      "  libswscale      6.  1.100 /  6.  1.100\n",
      "  libswresample   4.  0.100 /  4.  0.100\n",
      "  libpostproc    56.  0.100 / 56.  0.100\n",
      "Input #0, mov,mp4,m4a,3gp,3g2,mj2, from 'input.mp4':\n",
      "  Metadata:\n",
      "    major_brand     : isom\n",
      "    minor_version   : 512\n",
      "    compatible_brands: isomiso2avc1mp41\n",
      "    encoder         : Lavf59.8.100\n",
      "  Duration: 00:00:30.00, start: 0.000000, bitrate: 1672 kb/s\n",
      "  Stream #0:0[0x1](und): Video: h264 (High) (avc1 / 0x31637661), yuv420p(tv, bt709, progressive), 1280x720 [SAR 1:1 DAR 16:9], 1324 kb/s, 24 fps, 24 tbr, 12288 tbn (default)\n",
      "    Metadata:\n",
      "      handler_name    : VideoHandler\n",
      "      vendor_id       : [0][0][0][0]\n",
      "  Stream #0:1[0x2](und): Audio: aac (LC) (mp4a / 0x6134706D), 48000 Hz, 5.1, fltp, 342 kb/s (default)\n",
      "    Metadata:\n",
      "      handler_name    : SoundHandler\n",
      "      vendor_id       : [0][0][0][0]\n",
      "Stream mapping:\n",
      "  Stream #0:0 -> #0:0 (h264 (native) -> h264 (libx264))\n",
      "  Stream #0:1 -> #0:1 (aac (native) -> aac (native))\n",
      "Press [q] to stop, [?] for help\n",
      "[Parsed_subtitles_0 @ 0x7f9ad5930ec0] libass API version: 0x1502000\n",
      "[Parsed_subtitles_0 @ 0x7f9ad5930ec0] libass source: tarball: 0.15.2\n",
      "[Parsed_subtitles_0 @ 0x7f9ad5930ec0] Shaper: FriBidi 1.0.10 (SIMPLE) HarfBuzz-ng 3.0.0 (COMPLEX)\n",
      "[Parsed_subtitles_0 @ 0x7f9ad5930ec0] Using font provider coretext\n",
      "[libx264 @ 0x7f9ad5a055c0] using SAR=1/1\n",
      "[libx264 @ 0x7f9ad5a055c0] using cpu capabilities: MMX2 SSE2Fast SSSE3 SSE4.2 AVX FMA3 BMI2 AVX2\n",
      "[libx264 @ 0x7f9ad5a055c0] profile High, level 3.1, 4:2:0, 8-bit\n",
      "[libx264 @ 0x7f9ad5a055c0] 264 - core 164 r3075 66a5bc1 - H.264/MPEG-4 AVC codec - Copyleft 2003-2021 - http://www.videolan.org/x264.html - options: cabac=1 ref=3 deblock=1:0:0 analyse=0x3:0x113 me=hex subme=7 psy=1 psy_rd=1.00:0.00 mixed_ref=1 me_range=16 chroma_me=1 trellis=1 8x8dct=1 cqm=0 deadzone=21,11 fast_pskip=1 chroma_qp_offset=-2 threads=6 lookahead_threads=1 sliced_threads=0 nr=0 decimate=1 interlaced=0 bluray_compat=0 constrained_intra=0 bframes=3 b_pyramid=2 b_adapt=1 b_bias=0 direct=1 weightb=1 open_gop=0 weightp=2 keyint=250 keyint_min=24 scenecut=40 intra_refresh=0 rc_lookahead=40 rc=crf mbtree=1 crf=23.0 qcomp=0.60 qpmin=0 qpmax=69 qpstep=4 ip_ratio=1.40 aq=1:1.00\n",
      "Output #0, mp4, to 'subtitlesBBB.mp4':\n",
      "  Metadata:\n",
      "    major_brand     : isom\n",
      "    minor_version   : 512\n",
      "    compatible_brands: isomiso2avc1mp41\n",
      "    encoder         : Lavf59.8.100\n",
      "  Stream #0:0(und): Video: h264 (avc1 / 0x31637661), yuv420p(tv, bt709, progressive), 1280x720 [SAR 1:1 DAR 16:9], q=2-31, 24 fps, 12288 tbn (default)\n",
      "    Metadata:\n",
      "      handler_name    : VideoHandler\n",
      "      vendor_id       : [0][0][0][0]\n",
      "      encoder         : Lavc59.12.100 libx264\n",
      "    Side data:\n",
      "      cpb: bitrate max/min/avg: 0/0/0 buffer size: 0 vbv_delay: N/A\n",
      "  Stream #0:1(und): Audio: aac (LC) (mp4a / 0x6134706D), 48000 Hz, 5.1, fltp, 341 kb/s (default)\n",
      "    Metadata:\n",
      "      handler_name    : SoundHandler\n",
      "      vendor_id       : [0][0][0][0]\n",
      "      encoder         : Lavc59.12.100 aac\n",
      "[Parsed_subtitles_0 @ 0x7f9ad5930ec0] fontselect: (Arial, 400, 0) -> /System/Library/Fonts/Supplemental/Arial.ttf, -1, ArialMT\n",
      "frame=  720 fps= 30 q=-1.0 Lsize=    5911kB time=00:00:30.01 bitrate=1613.1kbits/s speed=1.25x    \n",
      "video:4635kB audio:1254kB subtitle:0kB other streams:0kB global headers:0kB muxing overhead: 0.366113%\n",
      "[libx264 @ 0x7f9ad5a055c0] frame I:5     Avg QP:14.79  size:126436\n",
      "[libx264 @ 0x7f9ad5a055c0] frame P:221   Avg QP:20.10  size: 14525\n",
      "[libx264 @ 0x7f9ad5a055c0] frame B:494   Avg QP:24.47  size:  1828\n",
      "[libx264 @ 0x7f9ad5a055c0] consecutive B-frames:  4.7%  8.9%  7.5% 78.9%\n",
      "[libx264 @ 0x7f9ad5a055c0] mb I  I16..4: 33.0% 20.8% 46.2%\n",
      "[libx264 @ 0x7f9ad5a055c0] mb P  I16..4:  3.2%  7.2%  0.6%  P16..4: 28.8% 11.4%  7.8%  0.0%  0.0%    skip:41.0%\n",
      "[libx264 @ 0x7f9ad5a055c0] mb B  I16..4:  0.9%  0.4%  0.0%  B16..8: 28.6%  1.4%  0.2%  direct: 1.1%  skip:67.4%  L0:45.0% L1:49.7% BI: 5.3%\n",
      "[libx264 @ 0x7f9ad5a055c0] 8x8 transform intra:53.0% inter:56.2%\n",
      "[libx264 @ 0x7f9ad5a055c0] coded y,uvDC,uvAC intra: 22.5% 34.7% 12.6% inter: 6.3% 8.7% 1.0%\n",
      "[libx264 @ 0x7f9ad5a055c0] i16 v,h,dc,p: 58% 22%  9% 11%\n",
      "[libx264 @ 0x7f9ad5a055c0] i8 v,h,dc,ddl,ddr,vr,hd,vl,hu: 25% 15% 47%  2%  2%  2%  2%  2%  2%\n",
      "[libx264 @ 0x7f9ad5a055c0] i4 v,h,dc,ddl,ddr,vr,hd,vl,hu: 20% 16% 15%  7%  9%  9%  8%  8%  8%\n",
      "[libx264 @ 0x7f9ad5a055c0] i8c dc,h,v,p: 61% 20% 14%  5%\n",
      "[libx264 @ 0x7f9ad5a055c0] Weighted P-Frames: Y:11.8% UV:6.8%\n",
      "[libx264 @ 0x7f9ad5a055c0] ref P L0: 66.8% 15.6% 13.5%  4.0%  0.1%\n",
      "[libx264 @ 0x7f9ad5a055c0] ref B L0: 88.2%  9.9%  1.9%\n",
      "[libx264 @ 0x7f9ad5a055c0] ref B L1: 95.5%  4.5%\n",
      "[libx264 @ 0x7f9ad5a055c0] kb/s:1265.41\n",
      "[aac @ 0x7f9ad5a06880] Qavg: 1438.293\n"
     ]
    }
   ],
   "source": [
    "subtitles(name = 'input.mp4',output= 'subtitlesBBB.mp4',sub = 'subtitles.srt')"
   ]
  }
 ],
 "metadata": {
  "kernelspec": {
   "display_name": "Python 3 (ipykernel)",
   "language": "python",
   "name": "python3"
  },
  "language_info": {
   "codemirror_mode": {
    "name": "ipython",
    "version": 3
   },
   "file_extension": ".py",
   "mimetype": "text/x-python",
   "name": "python",
   "nbconvert_exporter": "python",
   "pygments_lexer": "ipython3",
   "version": "3.8.12"
  }
 },
 "nbformat": 4,
 "nbformat_minor": 5
}
